# xmcd CD database file
#
# Track frame offsets:
#	150
#	19499
#	40581
#	64874
#	95563
#	122875
#	142034
#	178732
#	196272
#	221149
#	232838
#	251338
#	278283
#	305735
#	331595
#
# Disc length: 4734 seconds
#
# Revision: 1
# Processed by: cddbd v1.5.2PL0 Copyright (c) Steve Scherf et al.
# Submitted via: CDex 1.70beta2
#
DISCID=d4127c0f
DTITLE=Billy's Band - Блюз в голове. Live
DYEAR=2005
DGENRE=Blues
TTITLE0=На его месте должен был быть я
TTITLE1=Немного смерти немного любви
TTITLE2=Clap Hands (T.Waits)
TTITLE3=Открытка от...
TTITLE4=В этом городе
TTITLE5=Оторвемся по-питерски
TTITLE6=Блюз в голове
TTITLE7=Не верь мужикам
TTITLE8=Коктейль
TTITLE9=Парижские сезоны
TTITLE10=Ice Cream Man
TTITLE11=Где спит твое сердце
TTITLE12=200 см3 Агдама
TTITLE13=Выпей вина
TTITLE14=Кладбище девичьих сердец
EXTD=YEAR: 2005
EXTT0=
EXTT1=
EXTT2=
EXTT3=
EXTT4=
EXTT5=
EXTT6=
EXTT7=
EXTT8=
EXTT9=
EXTT10=
EXTT11=
EXTT12=
EXTT13=
EXTT14=
PLAYORDER=
